# xmcd
#
# Track frame offsets: 
#        150
#        3300
#        17480
#        39845
#        59212
#        77377
#        100465
#        124797
#        136360
#        159312
#        173347
#
# Disc length: 2584 seconds
#
# Revision: 4
# Processed by: cddbd v1.5.2PL0 Copyright (c) Steve Scherf et al.
# Submitted via: ExactAudioCopy v1.0b4
#
DISCID=7a0a160b
DTITLE=Squealer - The Prophecy
DYEAR=1999
DGENRE=Heavy/Power Metal
TTITLE0=The Prophecy (The Final Sign)
TTITLE1=Friends For Life
TTITLE2=But No One Cares
TTITLE3=Live Everyday
TTITLE4=Hold On Tight
TTITLE5=To Die For (...Your Sins)
TTITLE6=Nowhere To Hide
TTITLE7=I See The World
TTITLE8=The Meaning Of Life
TTITLE9=Enjoy The Silence (Depeche Mode Cover) 
TTITLE10=The Prophecy (Follow Me)
EXTD=YEAR: 1999
EXTT0=
EXTT1=
EXTT2=
EXTT3=
EXTT4=
EXTT5=
EXTT6=
EXTT7=
EXTT8=
EXTT9=
EXTT10=
PLAYORDER=
